<?xml version="1.0" encoding="UTF-8" standalone="no"?>
<!DOCTYPE svg PUBLIC "-//W3C//DTD SVG 1.1//EN"
 "http://www.w3.org/Graphics/SVG/1.1/DTD/svg11.dtd">
<!-- Generated by graphviz version 2.43.0 (0)
 -->
<!-- Title: sourcetree Pages: 1 -->
<svg width="842pt" height="260pt"
 viewBox="0.00 0.00 841.50 260.00" xmlns="http://www.w3.org/2000/svg" xmlns:xlink="http://www.w3.org/1999/xlink">
<g id="graph0" class="graph" transform="scale(1 1) rotate(0) translate(4 256)">
<title>sourcetree</title>
<polygon fill="white" stroke="transparent" points="-4,4 -4,-256 837.5,-256 837.5,4 -4,4"/>
<!-- MulleObjCKVCFoundation -->
<g id="node1" class="node">
<title>MulleObjCKVCFoundation</title>
<polygon fill="yellow" stroke="black" points="581,-252 378,-252 378,-216 581,-216 581,-252"/>
<text text-anchor="middle" x="479.5" y="-230.3" font-family="Times,serif" font-size="14.00">MulleObjCKVCFoundation</text>
</g>
<!-- MulleObjCStandardFoundation -->
<g id="node2" class="node">
<title>MulleObjCStandardFoundation</title>
<polygon fill="lightgrey" stroke="black" points="599,-180 360,-180 360,-144 599,-144 599,-180"/>
<text text-anchor="middle" x="479.5" y="-158.3" font-family="Times,serif" font-size="14.00">MulleObjCStandardFoundation</text>
</g>
<!-- MulleObjCKVCFoundation&#45;&gt;MulleObjCStandardFoundation -->
<g id="edge1" class="edge">
<title>MulleObjCKVCFoundation&#45;&gt;MulleObjCStandardFoundation</title>
<path fill="none" stroke="black" d="M479.5,-215.7C479.5,-207.98 479.5,-198.71 479.5,-190.11"/>
<polygon fill="black" stroke="black" points="483,-190.1 479.5,-180.1 476,-190.1 483,-190.1"/>
</g>
<!-- MulleObjCContainerFoundation -->
<g id="node3" class="node">
<title>MulleObjCContainerFoundation</title>
<polygon fill="lightgrey" stroke="black" points="243,-108 0,-108 0,-72 243,-72 243,-108"/>
<text text-anchor="middle" x="121.5" y="-86.3" font-family="Times,serif" font-size="14.00">MulleObjCContainerFoundation</text>
</g>
<!-- MulleObjCStandardFoundation&#45;&gt;MulleObjCContainerFoundation -->
<g id="edge2" class="edge">
<title>MulleObjCStandardFoundation&#45;&gt;MulleObjCContainerFoundation</title>
<path fill="none" stroke="black" d="M392.38,-143.97C339.87,-133.7 272.89,-120.6 218.67,-110"/>
<polygon fill="black" stroke="black" points="219.18,-106.53 208.7,-108.05 217.84,-113.4 219.18,-106.53"/>
</g>
<!-- MulleObjCTimeFoundation -->
<g id="node4" class="node">
<title>MulleObjCTimeFoundation</title>
<polygon fill="lightgrey" stroke="black" points="469.5,-108 261.5,-108 261.5,-72 469.5,-72 469.5,-108"/>
<text text-anchor="middle" x="365.5" y="-86.3" font-family="Times,serif" font-size="14.00">MulleObjCTimeFoundation</text>
</g>
<!-- MulleObjCStandardFoundation&#45;&gt;MulleObjCTimeFoundation -->
<g id="edge3" class="edge">
<title>MulleObjCStandardFoundation&#45;&gt;MulleObjCTimeFoundation</title>
<path fill="none" stroke="black" d="M451.61,-143.88C436.71,-134.72 418.17,-123.34 402.12,-113.48"/>
<polygon fill="black" stroke="black" points="403.85,-110.44 393.49,-108.19 400.19,-116.41 403.85,-110.44"/>
</g>
<!-- MulleObjCValueFoundation -->
<g id="node5" class="node">
<title>MulleObjCValueFoundation</title>
<polygon fill="lightgrey" stroke="black" points="699.5,-108 487.5,-108 487.5,-72 699.5,-72 699.5,-108"/>
<text text-anchor="middle" x="593.5" y="-86.3" font-family="Times,serif" font-size="14.00">MulleObjCValueFoundation</text>
</g>
<!-- MulleObjCStandardFoundation&#45;&gt;MulleObjCValueFoundation -->
<g id="edge4" class="edge">
<title>MulleObjCStandardFoundation&#45;&gt;MulleObjCValueFoundation</title>
<path fill="none" stroke="black" d="M507.39,-143.88C522.29,-134.72 540.83,-123.34 556.88,-113.48"/>
<polygon fill="black" stroke="black" points="558.81,-116.41 565.51,-108.19 555.15,-110.44 558.81,-116.41"/>
</g>
<!-- mulle&#45;unicode -->
<g id="node6" class="node">
<title>mulle&#45;unicode</title>
<polygon fill="lightgrey" stroke="black" points="833.5,-108 717.5,-108 717.5,-72 833.5,-72 833.5,-108"/>
<text text-anchor="middle" x="775.5" y="-86.3" font-family="Times,serif" font-size="14.00">mulle&#45;unicode</text>
</g>
<!-- MulleObjCStandardFoundation&#45;&gt;mulle&#45;unicode -->
<g id="edge5" class="edge">
<title>MulleObjCStandardFoundation&#45;&gt;mulle&#45;unicode</title>
<path fill="none" stroke="black" d="M554.89,-143.97C597.15,-134.33 651.06,-121.86 707.58,-108.2"/>
<polygon fill="black" stroke="black" points="708.52,-111.57 717.41,-105.82 706.87,-104.77 708.52,-111.57"/>
</g>
<!-- MulleObjC -->
<g id="node7" class="node">
<title>MulleObjC</title>
<polygon fill="lightgrey" stroke="black" points="355.5,-36 263.5,-36 263.5,0 355.5,0 355.5,-36"/>
<text text-anchor="middle" x="309.5" y="-14.3" font-family="Times,serif" font-size="14.00">MulleObjC</text>
</g>
<!-- MulleObjCTimeFoundation&#45;&gt;MulleObjC -->
<g id="edge6" class="edge">
<title>MulleObjCTimeFoundation&#45;&gt;MulleObjC</title>
<path fill="none" stroke="black" d="M351.66,-71.7C345.01,-63.39 336.92,-53.28 329.61,-44.14"/>
<polygon fill="black" stroke="black" points="332.16,-41.73 323.18,-36.1 326.7,-46.1 332.16,-41.73"/>
</g>
<!-- mulle&#45;time -->
<g id="node8" class="node">
<title>mulle&#45;time</title>
<polygon fill="lightgrey" stroke="black" points="467,-36 374,-36 374,0 467,0 467,-36"/>
<text text-anchor="middle" x="420.5" y="-14.3" font-family="Times,serif" font-size="14.00">mulle&#45;time</text>
</g>
<!-- MulleObjCTimeFoundation&#45;&gt;mulle&#45;time -->
<g id="edge7" class="edge">
<title>MulleObjCTimeFoundation&#45;&gt;mulle&#45;time</title>
<path fill="none" stroke="black" d="M379.1,-71.7C385.62,-63.39 393.57,-53.28 400.75,-44.14"/>
<polygon fill="black" stroke="black" points="403.63,-46.13 407.06,-36.1 398.13,-41.81 403.63,-46.13"/>
</g>
</g>
</svg>
