<?xml version="1.0" encoding="UTF-8" standalone="no"?>
<!DOCTYPE svg PUBLIC "-//W3C//DTD SVG 1.1//EN"
 "http://www.w3.org/Graphics/SVG/1.1/DTD/svg11.dtd">
<!-- Generated by graphviz version 2.43.0 (0)
 -->
<!-- Title: sourcetree Pages: 1 -->
<svg width="588pt" height="260pt"
 viewBox="0.00 0.00 588.00 260.00" xmlns="http://www.w3.org/2000/svg" xmlns:xlink="http://www.w3.org/1999/xlink">
<g id="graph0" class="graph" transform="scale(1 1) rotate(0) translate(4 256)">
<title>sourcetree</title>
<polygon fill="white" stroke="transparent" points="-4,4 -4,-256 584,-256 584,4 -4,4"/>
<!-- MulleObjCKVCFoundation -->
<g id="node1" class="node">
<title>MulleObjCKVCFoundation</title>
<polygon fill="lightgrey" stroke="black" points="346,-252 143,-252 143,-216 346,-216 346,-252"/>
<text text-anchor="middle" x="244.5" y="-230.3" font-family="Times,serif" font-size="14.00">MulleObjCKVCFoundation</text>
</g>
<!-- MulleObjCStandardFoundation -->
<g id="node2" class="node">
<title>MulleObjCStandardFoundation</title>
<polygon fill="lightgrey" stroke="black" points="364,-180 125,-180 125,-144 364,-144 364,-180"/>
<text text-anchor="middle" x="244.5" y="-158.3" font-family="Times,serif" font-size="14.00">MulleObjCStandardFoundation</text>
</g>
<!-- MulleObjCKVCFoundation&#45;&gt;MulleObjCStandardFoundation -->
<g id="edge1" class="edge">
<title>MulleObjCKVCFoundation&#45;&gt;MulleObjCStandardFoundation</title>
<path fill="none" stroke="black" d="M244.5,-215.7C244.5,-207.98 244.5,-198.71 244.5,-190.11"/>
<polygon fill="black" stroke="black" points="248,-190.1 244.5,-180.1 241,-190.1 248,-190.1"/>
</g>
<!-- MulleObjCContainerFoundation -->
<g id="node3" class="node">
<title>MulleObjCContainerFoundation</title>
<polygon fill="lightgrey" stroke="black" points="243,-108 0,-108 0,-72 243,-72 243,-108"/>
<text text-anchor="middle" x="121.5" y="-86.3" font-family="Times,serif" font-size="14.00">MulleObjCContainerFoundation</text>
</g>
<!-- MulleObjCStandardFoundation&#45;&gt;MulleObjCContainerFoundation -->
<g id="edge2" class="edge">
<title>MulleObjCStandardFoundation&#45;&gt;MulleObjCContainerFoundation</title>
<path fill="none" stroke="black" d="M214.41,-143.88C198.18,-134.64 177.96,-123.13 160.53,-113.21"/>
<polygon fill="black" stroke="black" points="162.13,-110.09 151.7,-108.19 158.66,-116.18 162.13,-110.09"/>
</g>
<!-- MulleObjCValueFoundation -->
<g id="node4" class="node">
<title>MulleObjCValueFoundation</title>
<polygon fill="lightgrey" stroke="black" points="473.5,-108 261.5,-108 261.5,-72 473.5,-72 473.5,-108"/>
<text text-anchor="middle" x="367.5" y="-86.3" font-family="Times,serif" font-size="14.00">MulleObjCValueFoundation</text>
</g>
<!-- MulleObjCStandardFoundation&#45;&gt;MulleObjCValueFoundation -->
<g id="edge3" class="edge">
<title>MulleObjCStandardFoundation&#45;&gt;MulleObjCValueFoundation</title>
<path fill="none" stroke="black" d="M274.59,-143.88C290.82,-134.64 311.04,-123.13 328.47,-113.21"/>
<polygon fill="black" stroke="black" points="330.34,-116.18 337.3,-108.19 326.87,-110.09 330.34,-116.18"/>
</g>
<!-- mulle&#45;buffer -->
<g id="node5" class="node">
<title>mulle&#45;buffer</title>
<polygon fill="lightgrey" stroke="black" points="243.5,-36 139.5,-36 139.5,0 243.5,0 243.5,-36"/>
<text text-anchor="middle" x="191.5" y="-14.3" font-family="Times,serif" font-size="14.00">mulle&#45;buffer</text>
</g>
<!-- MulleObjCValueFoundation&#45;&gt;mulle&#45;buffer -->
<g id="edge4" class="edge">
<title>MulleObjCValueFoundation&#45;&gt;mulle&#45;buffer</title>
<path fill="none" stroke="black" d="M324.45,-71.88C300.17,-62.22 269.66,-50.09 243.99,-39.88"/>
<polygon fill="black" stroke="black" points="245,-36.51 234.41,-36.07 242.41,-43.02 245,-36.51"/>
</g>
<!-- MulleObjC -->
<g id="node6" class="node">
<title>MulleObjC</title>
<polygon fill="lightgrey" stroke="black" points="353.5,-36 261.5,-36 261.5,0 353.5,0 353.5,-36"/>
<text text-anchor="middle" x="307.5" y="-14.3" font-family="Times,serif" font-size="14.00">MulleObjC</text>
</g>
<!-- MulleObjCValueFoundation&#45;&gt;MulleObjC -->
<g id="edge5" class="edge">
<title>MulleObjCValueFoundation&#45;&gt;MulleObjC</title>
<path fill="none" stroke="black" d="M352.67,-71.7C345.48,-63.3 336.7,-53.07 328.81,-43.86"/>
<polygon fill="black" stroke="black" points="331.33,-41.42 322.16,-36.1 326.01,-45.97 331.33,-41.42"/>
</g>
<!-- mulle&#45;sprintf -->
<g id="node7" class="node">
<title>mulle&#45;sprintf</title>
<polygon fill="lightgrey" stroke="black" points="481,-36 372,-36 372,0 481,0 481,-36"/>
<text text-anchor="middle" x="426.5" y="-14.3" font-family="Times,serif" font-size="14.00">mulle&#45;sprintf</text>
</g>
<!-- MulleObjCValueFoundation&#45;&gt;mulle&#45;sprintf -->
<g id="edge6" class="edge">
<title>MulleObjCValueFoundation&#45;&gt;mulle&#45;sprintf</title>
<path fill="none" stroke="black" d="M382.08,-71.7C389.16,-63.3 397.78,-53.07 405.55,-43.86"/>
<polygon fill="black" stroke="black" points="408.31,-46.01 412.08,-36.1 402.96,-41.49 408.31,-46.01"/>
</g>
<!-- mulle&#45;utf -->
<g id="node8" class="node">
<title>mulle&#45;utf</title>
<polygon fill="lightgrey" stroke="black" points="580,-36 499,-36 499,0 580,0 580,-36"/>
<text text-anchor="middle" x="539.5" y="-14.3" font-family="Times,serif" font-size="14.00">mulle&#45;utf</text>
</g>
<!-- MulleObjCValueFoundation&#45;&gt;mulle&#45;utf -->
<g id="edge7" class="edge">
<title>MulleObjCValueFoundation&#45;&gt;mulle&#45;utf</title>
<path fill="none" stroke="black" d="M409.58,-71.88C433.65,-62.08 464,-49.73 489.32,-39.42"/>
<polygon fill="black" stroke="black" points="490.8,-42.6 498.75,-35.59 488.17,-36.11 490.8,-42.6"/>
</g>
</g>
</svg>
