<?xml version="1.0" encoding="UTF-8" standalone="no"?>
<!DOCTYPE svg PUBLIC "-//W3C//DTD SVG 1.1//EN"
 "http://www.w3.org/Graphics/SVG/1.1/DTD/svg11.dtd">
<!-- Generated by graphviz version 2.43.0 (0)
 -->
<!-- Title: sourcetree Pages: 1 -->
<svg width="616pt" height="260pt"
 viewBox="0.00 0.00 615.50 260.00" xmlns="http://www.w3.org/2000/svg" xmlns:xlink="http://www.w3.org/1999/xlink">
<g id="graph0" class="graph" transform="scale(1 1) rotate(0) translate(4 256)">
<title>sourcetree</title>
<polygon fill="white" stroke="transparent" points="-4,4 -4,-256 611.5,-256 611.5,4 -4,4"/>
<!-- MulleObjCKVCFoundation -->
<g id="node1" class="node">
<title>MulleObjCKVCFoundation</title>
<polygon fill="yellow" stroke="black" points="371,-252 168,-252 168,-216 371,-216 371,-252"/>
<text text-anchor="middle" x="269.5" y="-230.3" font-family="Times,serif" font-size="14.00">MulleObjCKVCFoundation</text>
</g>
<!-- mulle&#45;objc&#45;list -->
<g id="node2" class="node">
<title>mulle&#45;objc&#45;list</title>
<polygon fill="lightgrey" stroke="black" points="230,-180 113,-180 113,-144 230,-144 230,-180"/>
<text text-anchor="middle" x="171.5" y="-158.3" font-family="Times,serif" font-size="14.00">mulle&#45;objc&#45;list</text>
</g>
<!-- MulleObjCKVCFoundation&#45;&gt;mulle&#45;objc&#45;list -->
<g id="edge1" class="edge">
<title>MulleObjCKVCFoundation&#45;&gt;mulle&#45;objc&#45;list</title>
<path fill="none" stroke="black" d="M245.53,-215.88C232.95,-206.89 217.37,-195.76 203.75,-186.03"/>
<polygon fill="black" stroke="black" points="205.74,-183.15 195.57,-180.19 201.67,-188.85 205.74,-183.15"/>
</g>
<!-- MulleObjCStandardFoundation -->
<g id="node3" class="node">
<title>MulleObjCStandardFoundation</title>
<polygon fill="lightgrey" stroke="black" points="487,-180 248,-180 248,-144 487,-144 487,-180"/>
<text text-anchor="middle" x="367.5" y="-158.3" font-family="Times,serif" font-size="14.00">MulleObjCStandardFoundation</text>
</g>
<!-- MulleObjCKVCFoundation&#45;&gt;MulleObjCStandardFoundation -->
<g id="edge2" class="edge">
<title>MulleObjCKVCFoundation&#45;&gt;MulleObjCStandardFoundation</title>
<path fill="none" stroke="black" d="M293.47,-215.88C306.05,-206.89 321.63,-195.76 335.25,-186.03"/>
<polygon fill="black" stroke="black" points="337.33,-188.85 343.43,-180.19 333.26,-183.15 337.33,-188.85"/>
</g>
<!-- MulleObjCContainerFoundation -->
<g id="node4" class="node">
<title>MulleObjCContainerFoundation</title>
<polygon fill="lightgrey" stroke="black" points="243,-108 0,-108 0,-72 243,-72 243,-108"/>
<text text-anchor="middle" x="121.5" y="-86.3" font-family="Times,serif" font-size="14.00">MulleObjCContainerFoundation</text>
</g>
<!-- MulleObjCStandardFoundation&#45;&gt;MulleObjCContainerFoundation -->
<g id="edge3" class="edge">
<title>MulleObjCStandardFoundation&#45;&gt;MulleObjCContainerFoundation</title>
<path fill="none" stroke="black" d="M307.64,-143.97C272.52,-133.97 227.98,-121.3 191.27,-110.85"/>
<polygon fill="black" stroke="black" points="192.21,-107.48 181.63,-108.11 190.29,-114.21 192.21,-107.48"/>
</g>
<!-- MulleObjCValueFoundation -->
<g id="node5" class="node">
<title>MulleObjCValueFoundation</title>
<polygon fill="lightgrey" stroke="black" points="473.5,-108 261.5,-108 261.5,-72 473.5,-72 473.5,-108"/>
<text text-anchor="middle" x="367.5" y="-86.3" font-family="Times,serif" font-size="14.00">MulleObjCValueFoundation</text>
</g>
<!-- MulleObjCStandardFoundation&#45;&gt;MulleObjCValueFoundation -->
<g id="edge4" class="edge">
<title>MulleObjCStandardFoundation&#45;&gt;MulleObjCValueFoundation</title>
<path fill="none" stroke="black" d="M367.5,-143.7C367.5,-135.98 367.5,-126.71 367.5,-118.11"/>
<polygon fill="black" stroke="black" points="371,-118.1 367.5,-108.1 364,-118.1 371,-118.1"/>
</g>
<!-- mulle&#45;unicode -->
<g id="node6" class="node">
<title>mulle&#45;unicode</title>
<polygon fill="lightgrey" stroke="black" points="607.5,-108 491.5,-108 491.5,-72 607.5,-72 607.5,-108"/>
<text text-anchor="middle" x="549.5" y="-86.3" font-family="Times,serif" font-size="14.00">mulle&#45;unicode</text>
</g>
<!-- MulleObjCStandardFoundation&#45;&gt;mulle&#45;unicode -->
<g id="edge5" class="edge">
<title>MulleObjCStandardFoundation&#45;&gt;mulle&#45;unicode</title>
<path fill="none" stroke="black" d="M412.02,-143.88C437.23,-134.18 468.95,-121.98 495.57,-111.74"/>
<polygon fill="black" stroke="black" points="497.05,-114.92 505.12,-108.07 494.53,-108.39 497.05,-114.92"/>
</g>
<!-- MulleObjC -->
<g id="node7" class="node">
<title>MulleObjC</title>
<polygon fill="lightgrey" stroke="black" points="413.5,-36 321.5,-36 321.5,0 413.5,0 413.5,-36"/>
<text text-anchor="middle" x="367.5" y="-14.3" font-family="Times,serif" font-size="14.00">MulleObjC</text>
</g>
<!-- MulleObjCValueFoundation&#45;&gt;MulleObjC -->
<g id="edge6" class="edge">
<title>MulleObjCValueFoundation&#45;&gt;MulleObjC</title>
<path fill="none" stroke="black" d="M367.5,-71.7C367.5,-63.98 367.5,-54.71 367.5,-46.11"/>
<polygon fill="black" stroke="black" points="371,-46.1 367.5,-36.1 364,-46.1 371,-46.1"/>
</g>
</g>
</svg>
